<svg xmlns="http://www.w3.org/2000/svg" width="36" height="36" viewBox="0 0 36 36"><defs><style>.a{fill:#21afe9;}</style></defs><g transform="translate(-16 -16)"><path class="a" d="M16,204.2a4.2,4.2,0,0,0,4.2,4.2H33.4a.6.6,0,0,0,.36-1.08l-.96-.72a3.014,3.014,0,0,1-1.2-2.4,4.2,4.2,0,0,0-4.2-4.2H20.2a4.2,4.2,0,0,0-4.2,4.2Zm4.2-3h7.2a3,3,0,0,1,3,3,4.224,4.224,0,0,0,1.261,3H20.2a3,3,0,0,1,0-6Z" transform="translate(0 -170.2)"/><path class="a" d="M286.4,198a6.007,6.007,0,0,0-6-6H278a6.007,6.007,0,0,0-6,6,4.2,4.2,0,0,0,4.2,4.2h6A4.2,4.2,0,0,0,286.4,198Zm-4.2,3h-6a3,3,0,0,1-3-3,4.805,4.805,0,0,1,4.8-4.8h2.4a4.805,4.805,0,0,1,4.8,4.8A3,3,0,0,1,282.2,201Z" transform="translate(-236.8 -162.8)"/><path class="a" d="M311.2,232h-4.8a2.4,2.4,0,0,0,0,4.8h4.8a2.4,2.4,0,0,0,0-4.8Zm0,3.6h-4.8a1.2,1.2,0,0,1,0-2.4h4.8a1.2,1.2,0,0,1,0,2.4Z" transform="translate(-266.4 -199.8)"/><path class="a" d="M300.387,344h-5.4a3,3,0,0,0-2.979,3.351l.76,6.46a1.8,1.8,0,0,0,1.788,1.59h6.266a1.8,1.8,0,0,0,1.788-1.59l.76-6.46a3,3,0,0,0-2.979-3.35Zm1.788,3.21-.76,6.46a.6.6,0,0,1-.6.53h-6.266a.6.6,0,0,1-.6-.53l-.76-6.46a1.8,1.8,0,0,1,1.788-2.01h5.4a1.8,1.8,0,0,1,1.788,2.01Z" transform="translate(-255.286 -303.4)"/><path class="a" d="M240,361.8v2.288a6.608,6.608,0,0,0,.183,1.544l.874,3.632c0,.017.009.033.014.049a1.3,1.3,0,0,0,2.528-.41v-7.1a1.8,1.8,0,0,0-3.6,0Zm2.4,0v7.1a.1.1,0,0,1-.184.044l-.866-3.594a5.4,5.4,0,0,1-.15-1.264V361.8a.6.6,0,1,1,1.2,0Z" transform="translate(-207.2 -318.2)"/><path class="a" d="M449.8,360a1.8,1.8,0,0,0-1.8,1.8v7.1a1.3,1.3,0,0,0,2.528.41c.005-.016.01-.033.014-.049l.874-3.631a6.609,6.609,0,0,0,.183-1.545V361.8A1.8,1.8,0,0,0,449.8,360Zm.6,4.087a5.4,5.4,0,0,1-.15,1.264l-.866,3.595a.1.1,0,0,1-.184-.044v-7.1a.6.6,0,0,1,1.2,0Z" transform="translate(-399.6 -318.2)"/><circle class="a" cx="0.6" cy="0.6" r="0.6" transform="translate(39.4 34)"/><circle class="a" cx="0.6" cy="0.6" r="0.6" transform="translate(44.2 34)"/><path class="a" d="M22,16a6,6,0,1,0,6,6,6,6,0,0,0-6-6ZM20.2,26.448V25a1.8,1.8,0,0,1,3.6,0v1.448a4.784,4.784,0,0,1-3.6,0Zm.6-5.648A1.2,1.2,0,1,1,22,22,1.2,1.2,0,0,1,20.8,20.8ZM25,25.743V25a3,3,0,0,0-1.322-2.486,2.4,2.4,0,1,0-3.355,0A3,3,0,0,0,19,25v.743a4.8,4.8,0,1,1,6,0Z" transform="translate(0)"/><path class="a" d="M210.6,16h-12a4.2,4.2,0,0,0-4.2,4.2,3.014,3.014,0,0,1-1.2,2.4l-.96.72a.6.6,0,0,0,.36,1.08h18a4.2,4.2,0,1,0,0-8.4Zm0,7.2H194.338a4.224,4.224,0,0,0,1.261-3,3,3,0,0,1,3-3h12a3,3,0,1,1,0,6Z" transform="translate(-162.8 0)"/></g></svg>