<svg xmlns="http://www.w3.org/2000/svg" width="14" height="14" viewBox="0 0 14 14"><defs><style>.a{fill:#b3b4b4;opacity:0.5;}</style></defs><path class="a" d="M13.232,3.818a6.995,6.995,0,0,0-12.465,0,.267.267,0,0,0-.014.027,6.974,6.974,0,0,0,0,6.305.267.267,0,0,0,.014.027,6.995,6.995,0,0,0,12.465,0,.256.256,0,0,0,.015-.03,6.975,6.975,0,0,0,0-6.3.313.313,0,0,0-.015-.03Zm-.466,5.921H10.09A13.966,13.966,0,0,0,10.344,7.3h3.032A6.336,6.336,0,0,1,12.766,9.739ZM7,13.391c-.963,0-1.826-1.234-2.316-3.043H9.316C8.826,12.157,7.962,13.391,7,13.391ZM4.539,9.739A13.268,13.268,0,0,1,4.268,7.3H9.732a13.32,13.32,0,0,1-.271,2.435ZM.624,7.3H3.656a14,14,0,0,0,.254,2.435H1.234A6.336,6.336,0,0,1,.624,7.3Zm.61-3.043H3.909A13.966,13.966,0,0,0,3.656,6.7H.624a6.336,6.336,0,0,1,.61-2.435ZM7,.609c.963,0,1.826,1.234,2.316,3.043H4.684C5.174,1.843,6.037.609,7,.609ZM9.461,4.261A13.265,13.265,0,0,1,9.732,6.7H4.267a13.317,13.317,0,0,1,.271-2.435ZM10.344,6.7a13.994,13.994,0,0,0-.254-2.435h2.675a6.336,6.336,0,0,1,.61,2.435Zm2.09-3.043H9.953A6.771,6.771,0,0,0,8.594.818a6.4,6.4,0,0,1,3.84,2.834ZM5.406.818A6.779,6.779,0,0,0,4.047,3.652H1.566A6.405,6.405,0,0,1,5.406.818Zm-3.84,9.53H4.047a6.771,6.771,0,0,0,1.359,2.834,6.405,6.405,0,0,1-3.84-2.834Zm7.028,2.834a6.779,6.779,0,0,0,1.359-2.834h2.481a6.405,6.405,0,0,1-3.84,2.834Zm0,0" transform="translate(0)"/></svg>