<svg xmlns="http://www.w3.org/2000/svg" width="26" height="36" viewBox="0 0 26 36"><defs><style>.a{fill:#21afe9;}</style></defs><g transform="translate(-0.5)"><path class="a" d="M26.5,10.8A4.77,4.77,0,0,0,21.773,6h-1.8A6.492,6.492,0,0,0,7.027,6h-1.8a4.8,4.8,0,0,0,0,9.6h6.5V14.4h-6.5a3.6,3.6,0,0,1,0-7.2H8.182V6.6a5.319,5.319,0,1,1,10.636,0v.6h2.955a3.6,3.6,0,0,1,0,7.2h-6.5v1.2h6.5A4.77,4.77,0,0,0,26.5,10.8Zm0,0"/><path class="a" d="M24.136,142.135v-10.2a1.788,1.788,0,0,0-1.773-1.8H21.182v-1.31a1.8,1.8,0,0,0-.388-3.478,1.767,1.767,0,0,0-1.867,1.189H14.091v-7.552l1.355,1.376.836-.848L13.5,116.687l-2.781,2.824.836.848,1.355-1.376v7.552H8.073a1.763,1.763,0,0,0-3.425.393,1.8,1.8,0,0,0,1.171,1.9v1.911H2.273a1.788,1.788,0,0,0-1.773,1.8v7.2a1.788,1.788,0,0,0,1.773,1.8H5.818v1.2H4.045v1.2H8.773v-1.2H7v-1.2h3.545a1.788,1.788,0,0,0,1.773-1.8v-7.2a1.788,1.788,0,0,0-1.773-1.8H7v-1.91a1.785,1.785,0,0,0,1.073-1.09H18.927A1.784,1.784,0,0,0,20,128.825v1.311H16.455a1.788,1.788,0,0,0-1.773,1.8v10.2a1.788,1.788,0,0,0,1.773,1.8h5.909a1.789,1.789,0,0,0,1.773-1.8Zm-13-2.4a.6.6,0,0,1-.591.6H2.273a.6.6,0,0,1-.591-.6v-1.2h9.455Zm-.591-7.8a.6.6,0,0,1,.591.6v4.8H1.682v-4.8a.6.6,0,0,1,.591-.6Zm-4.136-4.2a.6.6,0,1,1,.591-.6A.6.6,0,0,1,6.409,127.735Zm14.182-1.2a.6.6,0,1,1-.591.6A.6.6,0,0,1,20.591,126.535Zm-4.727,5.4a.6.6,0,0,1,.591-.6h5.909a.6.6,0,0,1,.591.6v7.8H15.864Zm0,10.2v-1.2h7.091v1.2a.6.6,0,0,1-.591.6H16.455A.6.6,0,0,1,15.864,142.135Zm0,0" transform="translate(0 -107.935)"/></g></svg>