<svg xmlns="http://www.w3.org/2000/svg" width="20" height="36" viewBox="0 0 20 36"><defs><style>.a{fill:#21afe9;}</style></defs><g transform="translate(-120 -8)"><path class="a" d="M138.235,8H121.765A1.755,1.755,0,0,0,120,9.742V42.258A1.755,1.755,0,0,0,121.765,44h16.471A1.755,1.755,0,0,0,140,42.258V9.742A1.755,1.755,0,0,0,138.235,8Zm-5.459,1.161-.294,1.161h-4.964l-.294-1.161Zm6.048,33.1a.585.585,0,0,1-.588.581H121.765a.585.585,0,0,1-.588-.581V9.742a.585.585,0,0,1,.588-.581h4.247l.477,1.883a.587.587,0,0,0,.571.44h5.882a.587.587,0,0,0,.571-.44l.477-1.883h4.247a.585.585,0,0,1,.588.581Z"/><path class="a" d="M157.779,179.484a.584.584,0,0,0-.588-.581H156.5L156,176.467a.586.586,0,0,0-.577-.467h-8.235a.586.586,0,0,0-.577.467l-.494,2.436h-.694a.584.584,0,0,0-.588.581v1.742a.584.584,0,0,0,.588.581h.588v4.645h-2.426a.581.581,0,1,0,0,1.161H156.6a.581.581,0,1,0,0-1.161v-4.645h.588a.584.584,0,0,0,.588-.581Zm-10.106-2.323h7.271l.353,1.742h-7.977Zm1.282,9.29v-2.9h1.176v2.9Zm6.471,0h-4.118v-3.484a.584.584,0,0,0-.588-.581h-2.353a.584.584,0,0,0-.588.581v3.484h-.588v-4.645h8.235Zm1.176-5.806H146.015v-.581H156.6Z" transform="translate(-21.309 -155.806)"/><path class="a" d="M264.588,266.9h1.765a.584.584,0,0,0,.588-.581v-1.742a.584.584,0,0,0-.588-.581h-1.765a.584.584,0,0,0-.588.581v1.742A.584.584,0,0,0,264.588,266.9Zm.588-1.742h.588v.581h-.588Z" transform="translate(-133.412 -237.419)"/><path class="a" d="M147.529,464h-2.941a.581.581,0,1,0,0,1.161h2.941a.581.581,0,1,0,0-1.161Z" transform="translate(-22.235 -422.903)"/><path class="a" d="M209.176,464h-.588a.581.581,0,1,0,0,1.161h.588a.581.581,0,1,0,0-1.161Z" transform="translate(-81.529 -422.903)"/><path class="a" d="M345.177,320h-.588a.581.581,0,1,0,0,1.161h.588a.581.581,0,1,0,0-1.161Z" transform="translate(-207.529 -289.355)"/></g></svg>