<svg xmlns="http://www.w3.org/2000/svg" width="14" height="14.001" viewBox="0 0 14 14.001"><defs><style>.a{fill:#21afe9;}</style></defs><g transform="translate(-0.017 0)"><g transform="translate(0.017 0)"><g transform="translate(0)"><path class="a" d="M14.011,6.866A7,7,0,0,0,2.257,1.858a7.007,7.007,0,0,0-.186,10.091.3.3,0,0,0,.427-.006c.082-.086.183-.191.223-.229a.305.305,0,0,0,.039-.033l.657-.657H5.557a.594.594,0,0,0,.557-.38.576.576,0,0,0-.138-.634,3.031,3.031,0,0,1-.9-2.157V5.292a.948.948,0,0,1,.285-.683.974.974,0,0,1,.683-.285H7.968a.947.947,0,0,1,.683.285.972.972,0,0,1,.285.683V7.853a3.04,3.04,0,0,1-.9,2.166.6.6,0,0,0-.1.649.587.587,0,0,0,.543.357h2.263a.3.3,0,1,0,0-.6l-2.258,0a.028.028,0,0,1,0-.014A3.622,3.622,0,0,0,9.532,7.853V5.292a1.573,1.573,0,0,0-.459-1.1,1.551,1.551,0,0,0-1.1-.459H6.048a1.573,1.573,0,0,0-1.1.459,1.552,1.552,0,0,0-.459,1.1V7.853a3.608,3.608,0,0,0,1.072,2.576H3.294a.3.3,0,0,0-.211.087l-.74.74c-.019.016-.039.034-.06.054a6.4,6.4,0,0,1,9.071-9.015,6.4,6.4,0,0,1,.185,9.233.3.3,0,0,0,.421.421A6.94,6.94,0,0,0,14.011,6.866Z" transform="translate(-0.017 0)"/></g></g><g transform="translate(6.718 6.438)"><path class="a" d="M252.346,235.717a.294.294,0,0,0-.308-.287.3.3,0,0,0-.287.308,6.418,6.418,0,0,1-6.4,6.659.3.3,0,1,0,0,.6,7.013,7.013,0,0,0,7-7.276Z" transform="translate(-245.051 -235.43)"/></g></g></svg>