<svg xmlns="http://www.w3.org/2000/svg" width="18" height="18" viewBox="0 0 18 18"><defs><style>.a{fill:#21afe9;fill-rule:evenodd;}</style></defs><path class="a" d="M15.627,2.616a8.971,8.971,0,0,0-15.3,6.3,8.871,8.871,0,0,0,1.2,4.459L.25,18,5,16.76a8.987,8.987,0,0,0,4.283,1.086h0A8.954,8.954,0,0,0,18.25,8.926a8.843,8.843,0,0,0-2.623-6.31ZM9.287,16.339h0a7.467,7.467,0,0,1-3.791-1.033l-.272-.161L2.4,15.881l.753-2.736-.177-.28A7.411,7.411,0,0,1,9.29,1.506a7.416,7.416,0,1,1,0,14.833Zm4.086-5.552c-.224-.112-1.325-.651-1.53-.725s-.355-.111-.5.112-.578.725-.709.874-.261.167-.485.056A6.123,6.123,0,0,1,8.344,10,6.728,6.728,0,0,1,7.1,8.453c-.13-.223,0-.332.1-.455a6.305,6.305,0,0,0,.56-.762.408.408,0,0,0-.019-.39c-.056-.112-.5-1.208-.69-1.655s-.366-.376-.5-.383S6.264,4.8,6.114,4.8a.824.824,0,0,0-.6.279,2.5,2.5,0,0,0-.784,1.859,4.325,4.325,0,0,0,.914,2.305,9.963,9.963,0,0,0,3.826,3.365,12.859,12.859,0,0,0,1.277.47,3.084,3.084,0,0,0,1.41.088,2.307,2.307,0,0,0,1.512-1.06,1.854,1.854,0,0,0,.13-1.06c-.056-.093-.205-.149-.429-.26Zm0,0" transform="translate(-0.25)"/></svg>